<?xml version="1.0" encoding="UTF-8"?>
<!-- Generator: Adobe Illustrator 24.0.0, SVG Export Plug-In . SVG Version: 6.00 Build 0)  -->
<svg version="1.1" id="Capa_1" xmlns="http://www.w3.org/2000/svg" xmlns:xlink="http://www.w3.org/1999/xlink" x="0px" y="0px" viewBox="0 0 163.06 167.42" style="enable-background:new 0 0 163.06 167.42;" xml:space="preserve">
<style type="text/css">
	.st0{fill:none;stroke:#00B6B1;stroke-width:3.111;stroke-linecap:round;stroke-linejoin:round;stroke-miterlimit:10;}
	.st1{fill:none;stroke:#00B6B1;stroke-width:3.2332;stroke-linecap:round;stroke-linejoin:round;stroke-miterlimit:10;}
	.st2{fill:none;stroke:#00B5B0;stroke-width:3.2332;stroke-linecap:round;stroke-linejoin:round;stroke-miterlimit:10;}
	.st3{fill:none;stroke:#00B5B0;stroke-width:2.1068;stroke-linecap:round;stroke-linejoin:round;stroke-miterlimit:10;}
	.st4{fill:none;stroke:#00B6B1;stroke-width:2.1068;stroke-linecap:round;stroke-linejoin:round;stroke-miterlimit:10;}
	.st5{fill:none;stroke:#00B6B1;stroke-width:2.1175;stroke-linecap:round;stroke-linejoin:round;stroke-miterlimit:10;}
	.st6{fill:none;stroke:#00B6B1;stroke-width:2.0242;stroke-linecap:round;stroke-linejoin:round;stroke-miterlimit:10;}
	.st7{fill:#00B6B1;}
	.st8{fill:none;stroke:#00B5B0;stroke-width:0.7137;stroke-linecap:round;stroke-linejoin:round;stroke-miterlimit:10;}
</style>
<rect x="11.81" y="67.34" class="st0" width="144" height="90"/>
<path class="st1" d="M146.98,37.84h6.8c2.5,0,4.53,2.03,4.53,4.53v24.47h-149V42.52c0-2.59,2.1-4.68,4.68-4.68h6.61"/>
<line class="st2" x1="118.77" y1="37.84" x2="138.81" y2="37.84"/>
<line class="st2" x1="90.04" y1="37.84" x2="111.23" y2="37.84"/>
<line class="st2" x1="59.31" y1="37.84" x2="82.26" y2="37.84"/>
<line class="st2" x1="29.28" y1="37.84" x2="50.47" y2="37.84"/>
<path class="st1" d="M24.81,55.84L24.81,55.84c-1.93,0-3.5-1.57-3.5-3.5v-28c0-1.92,1.57-3.5,3.5-3.5h0c1.92,0,3.5,1.57,3.5,3.5v28  C28.31,54.26,26.73,55.84,24.81,55.84z"/>
<path class="st1" d="M54.81,54.84L54.81,54.84c-1.93,0-3.5-1.57-3.5-3.5v-28c0-1.92,1.58-3.5,3.5-3.5h0c1.92,0,3.5,1.57,3.5,3.5v28  C58.31,53.26,56.73,54.84,54.81,54.84z"/>
<path class="st1" d="M85.81,53.84L85.81,53.84c-1.93,0-3.5-1.57-3.5-3.5v-28c0-1.92,1.57-3.5,3.5-3.5h0c1.92,0,3.5,1.57,3.5,3.5v28  C89.31,52.26,87.73,53.84,85.81,53.84z"/>
<path class="st1" d="M114.81,53.84L114.81,53.84c-1.93,0-3.5-1.57-3.5-3.5v-28c0-1.92,1.57-3.5,3.5-3.5h0c1.92,0,3.5,1.57,3.5,3.5  v28C118.31,52.26,116.73,53.84,114.81,53.84z"/>
<path class="st1" d="M142.81,53.84L142.81,53.84c-1.93,0-3.5-1.57-3.5-3.5v-28c0-1.92,1.57-3.5,3.5-3.5h0c1.92,0,3.5,1.57,3.5,3.5  v28C146.31,52.26,144.73,53.84,142.81,53.84z"/>
<line class="st1" x1="35.81" y1="79.34" x2="129.81" y2="79.34"/>
<path class="st1" d="M154.81,118.34c-4.19,6.73-8.13,8.58-11,9c-3.82,0.56-5.93-1.39-10,0c-4.34,1.48-6.59,5.28-7,6  c-2.37,4.17-0.82,6.91-2,11c-0.92,3.19-5.51,9.28-13,13"/>
<path class="st3" d="M155.31,127.84c-1.99,3.67-4.59,7.78-8,12c-6.53,8.08-13.55,13.5-19,17"/>
<path class="st4" d="M149.91,124.8c0,0,0.87,12.57-5.62,18.55"/>
<path class="st4" d="M144.31,127.84c0,0,2.5,10.5-7.67,22.84"/>
<path class="st4" d="M140.21,127.36c0,0-3.4,23.98-16.4,29.98"/>
<path class="st4" d="M132.31,127.84c0,0,0.5,21.5-12,29"/>
<line class="st4" x1="40.81" y1="38.34" x2="25.81" y2="67.34"/>
<line class="st4" x1="46.81" y1="38.34" x2="33.81" y2="66.34"/>
<line class="st5" x1="21.81" y1="46.34" x2="11.81" y2="66.34"/>
<line class="st3" x1="17.81" y1="37.34" x2="9.81" y2="56.34"/>
<line class="st4" x1="50.81" y1="43.34" x2="40.81" y2="66.34"/>
<line class="st4" x1="69.81" y1="38.34" x2="56.81" y2="66.34"/>
<line class="st4" x1="76.81" y1="38.34" x2="63.81" y2="66.34"/>
<line class="st4" x1="101.81" y1="38.34" x2="88.81" y2="66.34"/>
<line class="st4" x1="128.81" y1="38.34" x2="115.81" y2="66.34"/>
<line class="st4" x1="108.81" y1="38.34" x2="95.81" y2="66.34"/>
<line class="st4" x1="135.81" y1="38.34" x2="122.81" y2="66.34"/>
<line class="st4" x1="156.81" y1="39.34" x2="143.81" y2="67.34"/>
<line class="st4" x1="81.81" y1="42.34" x2="70.81" y2="66.34"/>
<line class="st4" x1="111.81" y1="44.34" x2="101.81" y2="66.34"/>
<line class="st4" x1="138.81" y1="47.34" x2="129.81" y2="66.34"/>
<line class="st4" x1="141.81" y1="54.34" x2="136.81" y2="66.34"/>
<line class="st3" x1="149.81" y1="38.34" x2="145.81" y2="46.34"/>
<line class="st3" x1="122.81" y1="38.34" x2="118.81" y2="46.34"/>
<line class="st4" x1="157.81" y1="52.34" x2="151.81" y2="66.34"/>
<line class="st3" x1="95.02" y1="37.99" x2="88.81" y2="50.34"/>
<line class="st3" x1="65.02" y1="37.99" x2="58.81" y2="50.34"/>
<line class="st3" x1="35.02" y1="37.99" x2="28.81" y2="50.34"/>
<line class="st4" x1="85.81" y1="54.34" x2="78.81" y2="67.34"/>
<line class="st4" x1="113.81" y1="54.34" x2="106.81" y2="67.34"/>
<line class="st4" x1="55.81" y1="54.34" x2="48.81" y2="67.34"/>
<line class="st6" x1="24.81" y1="55.34" x2="17.81" y2="67.34"/>
<path class="st7" d="M72.86,96.73c3.84,0.17,6.94,1.63,9.43,4.34c0.58,0.63,0.79,0.81,1.5,0.03c3.49-3.84,7.84-5.26,12.86-3.84  c4.97,1.41,8.02,4.86,8.94,9.89c0.78,4.26-0.57,8.26-2.54,12c-2.79,5.32-6.7,9.7-11.42,13.41c-2.24,1.76-4.63,3.21-7.16,4.49  c-1.08,0.55-1.98,0.46-3.02-0.04c-3.82-1.84-7.2-4.3-10.26-7.22c-4.33-4.14-7.94-8.8-9.87-14.55c-1.23-3.68-1.76-7.45,0.06-11.15  C63.76,99.29,67.7,96.94,72.86,96.73z M104.72,106.69c-0.04-1.57-0.83-2.62-1.3-3.77c-0.07-0.17-0.3-0.24-0.49-0.18  c-0.16,0.06-0.25,0.22-0.12,0.35C103.7,104.06,103.47,105.57,104.72,106.69z"/>
<path class="st8" d="M104.72,106.69c-1.26-1.12-1.03-2.63-1.91-3.59c-0.12-0.13-0.04-0.3,0.12-0.35c0.2-0.07,0.42,0,0.49,0.18  C103.89,104.07,104.68,105.12,104.72,106.69z"/>
</svg>