<?xml version="1.0" encoding="UTF-8"?>
<!-- Generator: Adobe Illustrator 24.0.0, SVG Export Plug-In . SVG Version: 6.00 Build 0)  -->
<svg version="1.1" id="Capa_1" xmlns="http://www.w3.org/2000/svg" xmlns:xlink="http://www.w3.org/1999/xlink" x="0px" y="0px" viewBox="0 0 137.79 156.7" style="enable-background:new 0 0 137.79 156.7;" xml:space="preserve">
<style type="text/css">
	.st0{fill:none;stroke:#00B6B1;stroke-width:3;stroke-linecap:round;stroke-linejoin:round;stroke-miterlimit:10;}
	.st1{fill:#00B6B1;}
	
		.st2{fill:none;stroke:#00B6B1;stroke-width:3;stroke-linecap:round;stroke-linejoin:round;stroke-miterlimit:10;stroke-dasharray:0,7;}
</style>
<polyline class="st0" points="26.18,104.56 5.18,137.56 31.18,131.56 43.18,152.56 62.18,118.56 "/>
<polyline class="st0" points="107.18,104.56 127.68,137.56 101.68,131.56 89.68,152.56 71.18,118.56 "/>
<path class="st0" d="M39.18,21.56c0,0,1-21,19-8c0,0,7-18,19,0c0,0,17-13,17,8c0,0,19-7,13,13c0,0,20,2,9,18c0,0,17,9,0,20  c0,0,12,15-9,17c0,0,7,21-12,16c0,0-5.84,18.49-17.52,5.55c-0.16-0.18-0.32-0.36-0.48-0.55c0,0-9,20-20,1  c0,0-13.68,13.68-17.86-4.36c-0.05-0.21-0.1-0.42-0.14-0.64c0,0-19,5-13-17c0,0-21,1-8-18c0,0-20-8,1-19c0,0-16-15,7-18  C26.18,34.56,19.18,15.56,39.18,21.56z"/>
<path class="st1" d="M74.48,75.1l-7.05-3.8c-0.36-0.19-0.79-0.2-1.15-0.01l-7.13,3.65c-0.91,0.47-1.96-0.31-1.77-1.32l1.44-7.88  c0.07-0.4-0.06-0.81-0.34-1.09L52.8,59c-0.72-0.72-0.31-1.96,0.71-2.09l7.94-1.07c0.4-0.05,0.75-0.3,0.94-0.66L66,48.03  c0.46-0.91,1.77-0.9,2.21,0.02l3.47,7.22c0.18,0.37,0.52,0.62,0.92,0.68l7.91,1.24c1.01,0.16,1.4,1.4,0.66,2.11l-5.79,5.53  c-0.29,0.28-0.43,0.69-0.37,1.09l1.27,7.91C76.44,74.83,75.38,75.59,74.48,75.1z"/>
<circle class="st2" cx="66.18" cy="62.56" r="38.5"/>
</svg>