<?xml version="1.0" encoding="UTF-8"?>
<!-- Generator: Adobe Illustrator 24.0.0, SVG Export Plug-In . SVG Version: 6.00 Build 0)  -->
<svg version="1.1" id="Capa_1" xmlns="http://www.w3.org/2000/svg" xmlns:xlink="http://www.w3.org/1999/xlink" x="0px" y="0px" viewBox="0 0 138.3 167.42" style="enable-background:new 0 0 138.3 167.42;" xml:space="preserve">
<style type="text/css">
	.st0{fill:#00B6B1;}
	
		.st1{fill:none;stroke:#00B6B1;stroke-width:3;stroke-linecap:round;stroke-linejoin:round;stroke-miterlimit:10;stroke-dasharray:0,5;}
	.st2{fill:none;stroke:#00B6B1;stroke-width:3.111;stroke-linecap:round;stroke-linejoin:round;stroke-miterlimit:10;}
	.st3{fill:none;stroke:#00B5B0;stroke-width:3.111;stroke-linecap:round;stroke-linejoin:round;stroke-miterlimit:10;}
</style>
<g>
	<polygon class="st0" points="54.52,50.76 86.52,50.76 86.52,68.76 80.52,70.76 80.52,155.76 61.52,156.76 62.52,70.76 54.52,70.76     "/>
	<path class="st0" d="M52.52,20.76c0,0,5-1,9,4s8,12,8,12s6-14,13-15s6,4,6,4s-1,7-6,10s-15,6-15,6l-10-4   C57.52,37.76,44.52,24.76,52.52,20.76z"/>
	<path class="st1" d="M23.52,86.76l0.5,50.5c0,0-1.05,13,10,13c12,0,17,0,17,0"/>
	<path class="st2" d="M131.02,70.26h-122v-7.54c0-6.88,5.58-12.46,12.46-12.46h96.31c7.31,0,13.23,5.93,13.23,13.23V70.26z"/>
	<path class="st2" d="M110.63,156.26H29.4c-6.84,0-12.38-5.54-12.38-12.38V70.26h106v73.61   C123.02,150.71,117.47,156.26,110.63,156.26z"/>
	<line class="st3" x1="55.02" y1="70.26" x2="55.02" y2="51.26"/>
	<line class="st3" x1="62.02" y1="70.26" x2="62.02" y2="154.76"/>
	<line class="st3" x1="80.02" y1="71.26" x2="80.02" y2="155.76"/>
	<line class="st3" x1="87.02" y1="50.26" x2="87.02" y2="69.26"/>
	<path class="st2" d="M36.02,34.26c5.2,3.01,17.38,9.12,34,9c16.04-0.12,27.8-5.99,33-9"/>
	<path class="st3" d="M71.02,43.26c-1.51-0.35,0.47-3.82-2-3c-3,1-10.21-1.81-14-6c-2.14-2.37-6.06-6.69-5-11   c0.12-0.47,0.55-2.24,2-3c2.22-1.17,5.26,0.85,7,2c3.33,2.21,5.03,4.9,7,8c2.42,3.83,2.85,5.96,3,7c0.24,1.66,0.13,3.06,0,4   c0.46-1.19,1.13-2.93,2-5c2.2-5.27,3.33-7.94,5-10c2.72-3.35,5.45-4.53,7-5c2.46-0.75,3.6-0.22,4,0c1.5,0.83,1.9,2.59,2,3   c0.72,3.09-1.45,5.95-3,8c-0.62,0.82-2.87,3.67-7,6c-3.38,1.91-6.62,2.68-9,3"/>
</g>
</svg>