<svg id="Capa_1" data-name="Capa 1" xmlns="http://www.w3.org/2000/svg" viewBox="0 0 99.21 22.68"><defs><style>.cls-1{fill:#fff;}</style></defs><title>miekooo</title><path class="cls-1" d="M35.62,15.64A7.55,7.55,0,0,0,31,11.23a11.36,11.36,0,0,0-4-.65,13.07,13.07,0,0,0-3.24.39l-1.6.5L20.34,11a14.34,14.34,0,0,0-3.4-.39,11.46,11.46,0,0,0-4,.65A7.94,7.94,0,0,0,10,13a7.78,7.78,0,0,0-1.74,2.64,8.79,8.79,0,0,0-.6,3.26V29.8a.53.53,0,0,0,.16.41.57.57,0,0,0,.4.16h6.44a.63.63,0,0,0,.38-.19.52.52,0,0,0,.15-.38V18.59a1.33,1.33,0,0,1,.17-.64,1.16,1.16,0,0,1,1.1-.68,1.19,1.19,0,0,1,.9.38,1.3,1.3,0,0,1,.35.9V29.8a.57.57,0,0,0,.16.41.53.53,0,0,0,.41.16H25.6a.54.54,0,0,0,.41-.16.56.56,0,0,0,.15-.41V18.55a1.3,1.3,0,0,1,.36-.9,1.17,1.17,0,0,1,.9-.38,1.15,1.15,0,0,1,1.09.68,1.23,1.23,0,0,1,.17.64V29.8a.49.49,0,0,0,.16.38.6.6,0,0,0,.38.19h6.44a.53.53,0,0,0,.39-.16.5.5,0,0,0,.17-.41V18.9a8.79,8.79,0,0,0-.6-3.26" transform="translate(-7.69 -7.71)"/><path class="cls-1" d="M44.37,30.37H37.6a.53.53,0,0,1-.41-.16A.57.57,0,0,1,37,29.8V11.14a.61.61,0,0,1,.16-.4.53.53,0,0,1,.41-.17h6.77a.54.54,0,0,1,.4.17.58.58,0,0,1,.17.4V29.8a.56.56,0,0,1-.57.57" transform="translate(-7.69 -7.71)"/><path class="cls-1" d="M47.57,26.18a9.62,9.62,0,0,0,3.92,3.3,9.84,9.84,0,0,0,9.8-.89,10.56,10.56,0,0,0,1.58-1.38.5.5,0,0,0-.1-.74l-4.41-2.75a.51.51,0,0,0-.49,0,3.7,3.7,0,0,1-2.91.64l-.21-.06L59.48,21l1.15-.8,4-2.8a.46.46,0,0,0,.19-.26.51.51,0,0,0,0-.34,9.94,9.94,0,0,0-1.06-1.94,9.83,9.83,0,0,0-8.94-4.19,9.9,9.9,0,0,0-8.09,5.7,9.87,9.87,0,0,0-.88,5,9.73,9.73,0,0,0,1.77,4.84m8.74-9.53.17.05L51.79,20c0-.06,0-.12,0-.18a3.75,3.75,0,0,1,1.6-2.53,3.7,3.7,0,0,1,2.91-.64" transform="translate(-7.69 -7.71)"/><path class="cls-1" d="M82.9,23.35a8.32,8.32,0,0,0-1.09-1.6,5.17,5.17,0,0,0-.84-.82c-.17-.09-.29-.17-.39-.23l.2-.11a5.36,5.36,0,0,0,.52-.46c.21-.22.44-.48.69-.8a7.08,7.08,0,0,0,.75-1.25,13.52,13.52,0,0,0,.71-1.71A14.24,14.24,0,0,0,84,14.06a21.94,21.94,0,0,0,.24-2.89.61.61,0,0,0-.15-.41.54.54,0,0,0-.39-.17H76.45a.51.51,0,0,0-.39.17.57.57,0,0,0-.16.41,8.13,8.13,0,0,1-.49,2.76,5.83,5.83,0,0,1-1,1.82,4.56,4.56,0,0,1-.81.64V11.13a.54.54,0,0,0-.17-.4.56.56,0,0,0-.4-.17H66.11a.55.55,0,0,0-.57.57V29.78a.55.55,0,0,0,.57.57h2.63s.05,0,.08,0h2.35a.15.15,0,0,0,.07,0H73a.55.55,0,0,0,.4-.16.5.5,0,0,0,.17-.41v-5a4.29,4.29,0,0,1,.84.57,5,5,0,0,1,1,1.7,8.1,8.1,0,0,1,.47,2.75.55.55,0,0,0,.55.55h7.23a.56.56,0,0,0,.4-.17.45.45,0,0,0,.14-.4A17.69,17.69,0,0,0,83.79,26a11.46,11.46,0,0,0-.89-2.64" transform="translate(-7.69 -7.71)"/><path class="cls-1" d="M106.9,22a11.34,11.34,0,1,0-19,8.42h15.22A11.36,11.36,0,0,0,106.9,22" transform="translate(-7.69 -7.71)"/><path class="cls-1" d="M46.31,7.71H35.66a7.88,7.88,0,0,0,10.65,0" transform="translate(-7.69 -7.71)"/></svg>