<?xml version="1.0" encoding="UTF-8"?>
<!-- Generator: Adobe Illustrator 24.0.0, SVG Export Plug-In . SVG Version: 6.00 Build 0)  -->
<svg version="1.1" xmlns="http://www.w3.org/2000/svg" xmlns:xlink="http://www.w3.org/1999/xlink" x="0px" y="0px" viewBox="0 0 108 37.53" style="enable-background:new 0 0 108 37.53;" xml:space="preserve">
<style type="text/css">
	.st0{fill:#00B6B1;}
	.st1{fill:#FCCC16;}
</style>
<g id="Capa_1">
</g>
<g id="Capa_2">
	<g>
		<path class="st0" d="M33.05,15.45c-0.4-1.11-0.98-2.08-1.74-2.91c-0.76-0.83-1.73-1.48-2.91-1.96c-1.18-0.48-2.51-0.72-3.99-0.72    c-1.14,0-2.22,0.15-3.23,0.44l-1.6,0.55l-1.79-0.55c-1.01-0.29-2.26-0.44-3.4-0.44c-1.48,0-2.81,0.24-3.99,0.72    c-1.18,0.48-2.15,1.13-2.91,1.96c-0.76,0.83-1.34,1.8-1.74,2.91c-0.4,1.11-0.6,2.31-0.6,3.59v12.01c0,0.19,0.06,0.34,0.17,0.45    c0.11,0.11,0.24,0.17,0.39,0.17h6.44c0.15-0.02,0.28-0.09,0.38-0.2c0.11-0.11,0.16-0.25,0.16-0.42V18.7    c0-0.25,0.06-0.49,0.17-0.71c0.24-0.5,0.61-0.75,1.1-0.75c0.36,0,0.66,0.14,0.9,0.42c0.23,0.27,0.35,0.6,0.36,0.99v12.4    c0,0.19,0.05,0.34,0.16,0.45c0.1,0.11,0.24,0.17,0.41,0.17h0.01h7.27h0.01c0.17,0,0.3-0.06,0.41-0.17    c0.11-0.11,0.16-0.26,0.16-0.45v-12.4c0.01-0.39,0.12-0.72,0.36-0.99c0.24-0.28,0.54-0.42,0.9-0.42c0.49,0,0.85,0.25,1.1,0.75    c0.11,0.23,0.17,0.47,0.17,0.71v12.35c0,0.17,0.05,0.3,0.16,0.42c0.1,0.11,0.23,0.18,0.38,0.2h6.44c0.15,0,0.28-0.06,0.39-0.17    c0.11-0.11,0.17-0.26,0.17-0.45V19.04C33.65,17.76,33.45,16.56,33.05,15.45"/>
		<path class="st0" d="M41.81,31.67h-6.78c-0.17,0-0.3-0.06-0.41-0.17c-0.11-0.11-0.16-0.26-0.16-0.45V10.49    c0-0.17,0.05-0.31,0.16-0.44c0.1-0.13,0.24-0.19,0.41-0.19h6.78c0.15,0,0.28,0.06,0.39,0.19c0.11,0.12,0.17,0.27,0.17,0.44v20.56    c0,0.19-0.06,0.34-0.17,0.45S41.96,31.67,41.81,31.67"/>
		<path class="st0" d="M45,27.05c1.03,1.62,2.33,2.83,3.92,3.63c1.59,0.8,3.25,1.12,5,0.96c1.75-0.16,3.35-0.81,4.81-1.94    c0.59-0.45,1.11-0.96,1.58-1.52c0.33-0.48-0.1-0.81-0.1-0.81l-4.41-3.02c0,0-0.26-0.18-0.48-0.03c-0.89,0.69-1.86,0.93-2.91,0.71    c-0.07-0.02-0.14-0.05-0.21-0.07l4.73-3.67l1.14-0.89l3.98-3.08c0,0,0.13-0.07,0.19-0.29c0.02-0.1,0.03-0.23-0.02-0.36    c-0.28-0.74-0.63-1.45-1.07-2.14c-1.03-1.62-2.34-2.84-3.93-3.65c-1.59-0.81-3.26-1.13-5-0.97c-1.75,0.16-3.35,0.81-4.81,1.94    c-1.46,1.13-2.55,2.58-3.29,4.34c-0.73,1.76-1.03,3.6-0.88,5.53C43.38,23.66,43.97,25.43,45,27.05 M53.74,16.56    c0.06,0.01,0.12,0.04,0.18,0.05l-4.69,3.64c0.01-0.07,0-0.13,0.01-0.2c0.18-1.17,0.71-2.09,1.6-2.78    C51.72,16.58,52.69,16.34,53.74,16.56"/>
		<path class="st0" d="M80.34,23.94c-0.32-0.68-0.69-1.26-1.09-1.76c-0.4-0.5-0.68-0.8-0.85-0.91c-0.16-0.11-0.29-0.19-0.39-0.25    l0.2-0.13c0.13-0.1,0.31-0.27,0.52-0.51c0.21-0.23,0.44-0.52,0.69-0.87c0.25-0.35,0.5-0.81,0.76-1.38c0.26-0.57,0.49-1.2,0.7-1.89    c0.21-0.69,0.39-1.53,0.53-2.54c0.14-1,0.22-2.07,0.24-3.19c0-0.17-0.05-0.32-0.16-0.44c-0.11-0.13-0.24-0.19-0.39-0.19h-7.23    c-0.15,0-0.28,0.06-0.39,0.19c-0.11,0.13-0.16,0.28-0.16,0.44c-0.02,1.14-0.18,2.16-0.49,3.05c-0.31,0.89-0.64,1.56-1,2    c-0.24,0.29-0.53,0.49-0.81,0.71v-5.79c0-0.17-0.06-0.32-0.17-0.44c-0.11-0.13-0.25-0.19-0.4-0.19h-6.92    c-0.17,0-0.31,0.06-0.42,0.17c-0.11,0.12-0.16,0.27-0.16,0.46v20.53c0,0.19,0.05,0.34,0.16,0.46c0.11,0.12,0.24,0.17,0.42,0.17    h2.63c0.03,0,0.05,0.03,0.08,0.03h2.34c0.03,0,0.05-0.03,0.08-0.03h1.78c0.15,0,0.29-0.06,0.4-0.17c0.11-0.12,0.17-0.27,0.17-0.46    v-5.47c0.29,0.19,0.59,0.37,0.84,0.63c0.36,0.39,0.69,1.02,0.99,1.87c0.3,0.86,0.45,1.87,0.47,3.03c0,0.17,0.05,0.31,0.16,0.43    c0.11,0.12,0.23,0.17,0.39,0.17h7.23c0.15,0,0.29-0.06,0.4-0.19c0.11-0.13,0.16-0.28,0.14-0.44c-0.02-1.54-0.16-2.95-0.43-4.21    C80.96,25.59,80.67,24.62,80.34,23.94"/>
		<path class="st1" d="M104.34,22.42c0-6.92-5.08-12.54-11.34-12.54c-6.26,0-11.34,5.61-11.34,12.54c0,3.68,1.44,6.98,3.73,9.27    h15.22C102.89,29.4,104.34,26.1,104.34,22.42"/>
		<path class="st0" d="M43.75,6.71H33.09C34.5,8.13,36.37,9,38.42,9C40.47,9,42.34,8.13,43.75,6.71"/>
	</g>
</g>
<g id="Capa_3">
</g>
<g id="Capa_4">
</g>
</svg>